<svg id="visual" viewBox="0 0 900 600" width="900" height="600" xmlns="http://www.w3.org/2000/svg" xmlns:xlink="http://www.w3.org/1999/xlink" version="1.1"><rect x="0" y="0" width="900" height="600" fill="#FFFFFF"></rect><path d="M0 432L21.5 430.3C43 428.7 86 425.3 128.8 425C171.7 424.7 214.3 427.3 257.2 418.5C300 409.7 343 389.3 385.8 385.8C428.7 382.3 471.3 395.7 514.2 404.3C557 413 600 417 642.8 414.8C685.7 412.7 728.3 404.3 771.2 402.2C814 400 857 404 878.5 406L900 408L900 601L878.5 601C857 601 814 601 771.2 601C728.3 601 685.7 601 642.8 601C600 601 557 601 514.2 601C471.3 601 428.7 601 385.8 601C343 601 300 601 257.2 601C214.3 601 171.7 601 128.8 601C86 601 43 601 21.5 601L0 601Z" fill="#f8f9fd"></path><path d="M0 397L21.5 407.7C43 418.3 86 439.7 128.8 440.2C171.7 440.7 214.3 420.3 257.2 419.3C300 418.3 343 436.7 385.8 436C428.7 435.3 471.3 415.7 514.2 415.7C557 415.7 600 435.3 642.8 448C685.7 460.7 728.3 466.3 771.2 467.7C814 469 857 466 878.5 464.5L900 463L900 601L878.5 601C857 601 814 601 771.2 601C728.3 601 685.7 601 642.8 601C600 601 557 601 514.2 601C471.3 601 428.7 601 385.8 601C343 601 300 601 257.2 601C214.3 601 171.7 601 128.8 601C86 601 43 601 21.5 601L0 601Z" fill="#d2d8ff"></path><path d="M0 453L21.5 459.3C43 465.7 86 478.3 128.8 487.8C171.7 497.3 214.3 503.7 257.2 503.5C300 503.3 343 496.7 385.8 493.2C428.7 489.7 471.3 489.3 514.2 490.8C557 492.3 600 495.7 642.8 499C685.7 502.3 728.3 505.7 771.2 502.8C814 500 857 491 878.5 486.5L900 482L900 601L878.5 601C857 601 814 601 771.2 601C728.3 601 685.7 601 642.8 601C600 601 557 601 514.2 601C471.3 601 428.7 601 385.8 601C343 601 300 601 257.2 601C214.3 601 171.7 601 128.8 601C86 601 43 601 21.5 601L0 601Z" fill="#b2b5ff"></path><path d="M0 525L21.5 523.8C43 522.7 86 520.3 128.8 520.5C171.7 520.7 214.3 523.3 257.2 525.8C300 528.3 343 530.7 385.8 532.5C428.7 534.3 471.3 535.7 514.2 536.5C557 537.3 600 537.7 642.8 537.7C685.7 537.7 728.3 537.3 771.2 529.5C814 521.7 857 506.3 878.5 498.7L900 491L900 601L878.5 601C857 601 814 601 771.2 601C728.3 601 685.7 601 642.8 601C600 601 557 601 514.2 601C471.3 601 428.7 601 385.8 601C343 601 300 601 257.2 601C214.3 601 171.7 601 128.8 601C86 601 43 601 21.5 601L0 601Z" fill="#9b90ff"></path><path d="M0 537L21.5 536.3C43 535.7 86 534.3 128.8 540C171.7 545.7 214.3 558.3 257.2 562C300 565.7 343 560.3 385.8 553.3C428.7 546.3 471.3 537.7 514.2 535.2C557 532.7 600 536.3 642.8 542.8C685.7 549.3 728.3 558.7 771.2 559C814 559.3 857 550.7 878.5 546.3L900 542L900 601L878.5 601C857 601 814 601 771.2 601C728.3 601 685.7 601 642.8 601C600 601 557 601 514.2 601C471.3 601 428.7 601 385.8 601C343 601 300 601 257.2 601C214.3 601 171.7 601 128.8 601C86 601 43 601 21.5 601L0 601Z" fill="#8e67ff"></path></svg>