<svg xmlns="http://www.w3.org/2000/svg" width="1156" height="651" viewBox="0 0 1906 1079" preserveAspectRatio="none"><defs><filter id="blur" x="-854" y="-933" width="3370" height="3231" filterUnits="userSpaceOnUse"><feGaussianBlur stdDeviation="41.5"/></filter><filter id="grain" x="-854" y="-933" width="3370" height="3231" filterUnits="userSpaceOnUse" primitiveUnits="userSpaceOnUse" color-interpolation-filters="linearRGB">
				<feTurbulence type="fractalNoise" baseFrequency=".2" numOctaves="4" seed="15" stitchTiles="no-stitch" x="0" y="0" width="1906" height="1079" result="turbulence"/>
				<feSpecularLighting surfaceScale="10" specularConstant="1.21" specularExponent="20" lighting-color="#fff" x="0" y="0" width="1906" height="1079" in="turbulence" result="specularLighting">
					<feDistantLight azimuth="3" elevation="100"/>
				</feSpecularLighting>
			</filter></defs><rect width="1906" height="1079" fill="#6C3BFF"/><path d="M 831.18 1189.09 L 361.24 1693.46 L -211.88 1937.86 L -763.00 1536.80 L -770.66 837.70 L -325.79 633.29 L 518.89 487.03 Z" fill="#F8F9FD" fill-opacity="0.2" filter="url(#blur)"/><path d="M 1724.81 715.89 L 1575.55 1498.85 L 909.46 1637.80 L 509.64 1437.47 L 191.49 1252.01 L 88.84 943.35 L 326.92 417.25 L 887.81 94.53 L 1327.00 234.22 Z" fill="#F8F9FD" fill-opacity="0.2" filter="url(#blur)"/><path d="M 1455.51 -109.16 L 1321.88 504.10 L 652.75 685.12 L 225.45 198.36 L -384.23 153.19 L -214.46 -343.55 L -7.20 -802.01 L 510.52 -849.00 L 877.48 -540.95 Z" fill="#8E67FF" fill-opacity="0.2" filter="url(#blur)"/><path d="M 2221.09 211.85 L 2429.70 986.50 L 1680.69 725.64 L 1136.72 523.08 L 877.49 376.81 L 755.15 216.09 L 1300.64 165.88 L 1845.56 279.97 Z" fill="#B6B8FD" fill-opacity="0.2" filter="url(#blur)"/><path d="M 839.29 377.42 L 730.49 566.38 L 477.87 627.42 L 391.77 415.49 L 491.48 231.80 L 710.82 265.53 Z" fill="#B6B8FD" fill-opacity="0.2" filter="url(#blur)"/><path d="M 2432.18 1675.17 L 2197.39 2161.30 L 1711.26 2214.82 L 1306.39 2080.03 L 1149.25 1675.17 L 1267.12 1231.03 L 1711.26 1003.87 L 1912.41 1258.52 Z" fill="#F8F9FD" fill-opacity="0.2" filter="url(#blur)"/><rect width="1906" height="1079" fill="#FFFFFF" filter="url(#grain)" opacity="0.03"/></svg>